# xmcd
#
# Track frame offsets:
#	150
#	15981
#	30644
#	55967
#	68890
#	82805
#	100610
#	118349
#	129895
#	137682
#	154509
#	175431
#	192788
#	214541
#
# Disc length: 3038 seconds
#
# Revision: 0
# Processed by: cddbd v1.5.2PL0 Copyright (c) Steve Scherf et al.
# Submitted via: audiograbber 1.83.01
#
DISCID=ae0bdc0e
DTITLE=Barrel Of Blues - In Classic Style
DYEAR=2007
DGENRE=Blues
TTITLE0=Rollin' And Tumblin
TTITLE1=Looking For Somebody
TTITLE2=19 Years Old
TTITLE3=Got Love If You Want It
TTITLE4=My Babe
TTITLE5=Everyday Day I Have The Blues
TTITLE6=Help Me
TTITLE7=Honest I Do
TTITLE8=I Want To Be Loved
TTITLE9=I Put A Spell On You
TTITLE10=Baby Please Don't Go
TTITLE11=Can't Be Satisfied
TTITLE12=Got My Mojo Working
TTITLE13=Scratch My Back
EXTD=
EXTT0=
EXTT1=
EXTT2=
EXTT3=
EXTT4=
EXTT5=
EXTT6=
EXTT7=
EXTT8=
EXTT9=
EXTT10=
EXTT11=
EXTT12=
EXTT13=
PLAYORDER=
